# Blender v2.74 (sub 0) OBJ File: 'Old Table.blend'
# www.blender.org
mtllib Old Table.mtl
o Table_ĞšÑƒĞ±.017
v -0.737940 1.519023 -0.009543
v -0.621895 1.385112 -0.004968
v -0.736766 1.767172 -0.015354
v -0.490948 1.766015 -0.009543
v -0.731670 1.715199 -0.023598
v -0.739098 1.602528 -0.015354
v -0.664204 1.515512 -0.008346
v -0.650833 1.469751 -0.005106
v -0.539838 1.486899 -0.004346
v -0.489468 1.659140 -0.007403
v -0.572121 1.764840 -0.015354
v -0.624095 1.759744 -0.023598
v -0.687232 1.603787 -0.021533
v -0.603248 1.534101 -0.002325
v -0.655609 1.683684 -0.037749
v -0.581218 1.643573 -0.021470
v -0.750633 1.438890 0.018569
v -0.750633 1.438890 0.345693
v -0.751820 1.767947 0.019204
v -0.750633 1.766015 0.345693
v -0.762096 1.667365 0.020608
v -0.753097 1.549361 0.018609
v -0.750633 1.438890 0.127610
v -0.750633 1.438890 0.236651
v -0.750633 1.547932 0.345693
v -0.750633 1.656973 0.345693
v -0.751754 1.767973 0.237318
v -0.760220 1.777146 0.130524
v -0.763484 1.557777 0.129002
v -0.782399 1.687921 0.134326
v -0.753093 1.549363 0.236694
v -0.762010 1.667399 0.238731
v -0.841335 1.872898 0.041389
v -0.841335 1.853994 0.041389
v -0.840880 1.872898 -0.070694
v -0.840880 1.853995 -0.070694
v 0.126953 1.872898 0.045315
v 0.126953 1.853994 0.045315
v 0.127407 1.872898 -0.066767
v 0.127407 1.853995 -0.066767
v -0.841321 1.872898 0.153858
v -0.841321 1.853994 0.153858
v -0.840893 1.872898 0.048147
v -0.840893 1.853994 0.048147
v 0.126965 1.872898 0.157784
v 0.126965 1.853994 0.157784
v 0.127394 1.872898 0.052073
v 0.127394 1.853994 0.052073
v -0.840846 1.884938 0.274597
v -0.841345 1.866043 0.274339
v -0.840536 1.886458 0.162525
v -0.841035 1.867563 0.162267
v 0.127108 1.859330 0.276928
v 0.126608 1.840435 0.276671
v 0.127418 1.860850 0.164856
v 0.126919 1.841955 0.164598
v -0.841318 1.872898 0.384662
v -0.841318 1.853994 0.384662
v -0.840896 1.872898 0.280582
v -0.840896 1.853994 0.280582
v 0.126968 1.872898 0.388588
v 0.126968 1.853994 0.388588
v 0.127390 1.872898 0.284508
v 0.127390 1.853994 0.284508
v -0.841409 1.858281 0.506982
v -0.840844 1.839387 0.506937
v -0.840937 1.858564 0.394900
v -0.840372 1.839669 0.394855
v 0.126445 1.887223 0.511127
v 0.127010 1.868328 0.511082
v 0.126916 1.887505 0.399046
v 0.127482 1.868610 0.399000
v -0.842724 1.872898 0.621385
v -0.842724 1.853994 0.621384
v -0.838949 1.872898 0.509365
v -0.838949 1.853994 0.509365
v 0.125022 1.872898 0.653993
v 0.125022 1.853994 0.653993
v 0.128797 1.872898 0.541973
v 0.128797 1.853994 0.541973
v 0.036893 1.748181 0.605835
v 0.018816 1.748181 0.605835
v 0.036893 1.855366 0.605835
v 0.018816 1.855366 0.605835
v 0.036893 1.748181 -0.015677
v 0.018816 1.748181 -0.015677
v 0.036893 1.855367 -0.015677
v 0.018816 1.855367 -0.015677
v -0.748761 1.760061 0.607357
v -0.765697 1.760061 0.607357
v -0.748761 1.860475 0.607357
v -0.765697 1.860475 0.607357
v -0.748761 1.760061 -0.003987
v -0.765697 1.760061 -0.003987
v -0.748761 1.860475 -0.003987
v -0.765697 1.860475 -0.003987
v -0.762825 1.752504 -0.022423
v -0.762825 1.752504 -0.041326
v -0.762825 1.864587 -0.022423
v -0.762825 1.864587 -0.041326
v 0.048897 1.752504 -0.022423
v 0.048897 1.752504 -0.041326
v 0.048897 1.864587 -0.022423
v 0.048897 1.864587 -0.041326
v -0.761317 1.722390 0.642677
v -0.761317 1.722390 0.623773
v -0.764001 1.834427 0.642677
v -0.764001 1.834427 0.623773
v 0.050074 1.750056 0.642677
v 0.050074 1.750056 0.623773
v 0.047389 1.862093 0.642677
v 0.047389 1.862093 0.623773
v 0.025000 1.145650 0.575376
v 0.025000 1.860519 0.575376
v 0.025000 1.145650 0.625376
v 0.025000 1.860519 0.625376
v -0.025000 1.145650 0.575376
v -0.025000 1.860519 0.575376
v -0.025000 1.145650 0.625376
v -0.025000 1.860519 0.625376
v -0.670923 1.146440 0.542537
v -0.715400 1.858648 0.585196
v -0.673052 1.143321 0.592395
v -0.717528 1.855529 0.635053
v -0.720781 1.143466 0.540223
v -0.765258 1.855673 0.582881
v -0.722910 1.140346 0.590080
v -0.767386 1.852554 0.632738
v -0.704246 1.145651 -0.025000
v -0.704246 1.860520 -0.025000
v -0.704246 1.145651 0.025000
v -0.704246 1.860520 0.025000
v -0.754246 1.145651 -0.025000
v -0.754246 1.860520 -0.025000
v -0.754246 1.145651 0.025000
v -0.754246 1.860520 0.025000
v 0.025000 1.145651 -0.025000
v 0.025000 1.860520 -0.025000
v 0.025000 1.145651 0.025000
v 0.025000 1.860520 0.025000
v -0.025000 1.145651 -0.025000
v -0.025000 1.860520 -0.025000
v -0.025000 1.145651 0.025000
v -0.025000 1.860520 0.025000
vt 0.254541 0.875694
vt 0.244805 0.875694
vt 0.244805 0.818174
vt 0.254541 0.818174
vt 0.950242 0.001540
vt 0.959977 0.001540
vt 0.959977 0.498462
vt 0.950242 0.498462
vt 0.257631 0.818174
vt 0.267367 0.818174
vt 0.267367 0.875694
vt 0.257631 0.875694
vt 0.898938 0.001540
vt 0.908674 0.001540
vt 0.908674 0.498462
vt 0.898938 0.498462
vt 0.059270 0.001540
vt 0.059270 0.498460
vt 0.001545 0.498460
vt 0.001545 0.001540
vt 0.241715 0.001540
vt 0.241715 0.498460
vt 0.183990 0.498460
vt 0.183990 0.001540
vt 0.850959 0.835473
vt 0.860694 0.835473
vt 0.860694 0.889724
vt 0.850959 0.889724
vt 0.937416 0.001540
vt 0.947152 0.001540
vt 0.947151 0.498461
vt 0.937416 0.498461
vt 0.847869 0.889724
vt 0.838133 0.889724
vt 0.838133 0.835473
vt 0.847869 0.835473
vt 0.911764 0.001540
vt 0.921500 0.001540
vt 0.921500 0.498461
vt 0.911764 0.498461
vt 0.488057 0.498459
vt 0.488057 0.001540
vt 0.542501 0.001540
vt 0.542501 0.498460
vt 0.545591 0.498460
vt 0.545591 0.001540
vt 0.600035 0.001540
vt 0.600035 0.498459
vt 0.404901 0.823384
vt 0.414633 0.823384
vt 0.414633 0.880904
vt 0.404901 0.880904
vt 0.703688 0.501539
vt 0.713423 0.501539
vt 0.713423 0.998460
vt 0.703688 0.998460
vt 0.401811 0.880904
vt 0.392080 0.880904
vt 0.392080 0.823384
vt 0.401811 0.823384
vt 0.690863 0.501539
vt 0.700598 0.501539
vt 0.700598 0.998460
vt 0.690863 0.998460
vt 0.424156 0.001540
vt 0.424156 0.498251
vt 0.366436 0.498272
vt 0.366436 0.001560
vt 0.484967 0.001560
vt 0.484967 0.498272
vt 0.427246 0.498251
vt 0.427246 0.001540
vt 0.876610 0.835473
vt 0.886346 0.835473
vt 0.886346 0.888886
vt 0.876610 0.888886
vt 0.963068 0.001540
vt 0.972803 0.001540
vt 0.972803 0.498461
vt 0.963068 0.498461
vt 0.873520 0.888886
vt 0.863785 0.888886
vt 0.863785 0.835473
vt 0.873520 0.835473
vt 0.924590 0.001540
vt 0.934326 0.001540
vt 0.934326 0.498461
vt 0.924590 0.498461
vt 0.603125 0.498459
vt 0.603125 0.001540
vt 0.656729 0.001540
vt 0.656729 0.498460
vt 0.713423 0.001540
vt 0.713423 0.498459
vt 0.659819 0.498459
vt 0.659819 0.001540
vt 0.388989 0.880904
vt 0.379258 0.880904
vt 0.379258 0.823384
vt 0.388989 0.823384
vt 0.975893 0.001540
vt 0.985629 0.001540
vt 0.985629 0.498462
vt 0.975893 0.498462
vt 0.376167 0.880904
vt 0.366436 0.880904
vt 0.366436 0.823384
vt 0.376167 0.823384
vt 0.988719 0.001540
vt 0.998455 0.001540
vt 0.998455 0.498462
vt 0.988719 0.498462
vt 0.302530 0.001542
vt 0.302530 0.498280
vt 0.244805 0.498278
vt 0.244806 0.001540
vt 0.305621 0.498280
vt 0.305621 0.001542
vt 0.363345 0.001540
vt 0.363345 0.498278
vt 0.742164 0.830090
vt 0.751900 0.830089
vt 0.751900 0.887583
vt 0.742164 0.887584
vt 0.605327 0.501539
vt 0.615062 0.501539
vt 0.615062 0.998239
vt 0.605327 0.998239
vt 0.764726 0.887584
vt 0.754990 0.887583
vt 0.754990 0.830089
vt 0.764726 0.830090
vt 0.627888 0.998239
vt 0.618152 0.998239
vt 0.618152 0.501539
vt 0.627888 0.501539
vt 0.120085 0.001540
vt 0.120085 0.498460
vt 0.062360 0.498460
vt 0.062360 0.001540
vt 0.180900 0.001540
vt 0.180900 0.498460
vt 0.123175 0.498460
vt 0.123175 0.001540
vt 0.898746 0.890480
vt 0.889436 0.890480
vt 0.889436 0.835473
vt 0.898746 0.835473
vt 0.908248 0.820496
vt 0.898938 0.820496
vt 0.898938 0.501541
vt 0.908248 0.501541
vt 0.068782 0.878581
vt 0.059472 0.878581
vt 0.059472 0.823574
vt 0.068782 0.823574
vt 0.059472 0.501539
vt 0.068782 0.501539
vt 0.068782 0.820495
vt 0.059472 0.820495
vt 0.366436 0.820305
vt 0.366436 0.501351
vt 0.421638 0.501351
vt 0.421638 0.820304
vt 0.716513 0.740793
vt 0.716513 0.421840
vt 0.771716 0.421840
vt 0.771716 0.740793
vt 0.777318 0.841486
vt 0.786040 0.841486
vt 0.786040 0.893018
vt 0.777318 0.893018
vt 0.931873 0.815278
vt 0.923151 0.815278
vt 0.923151 0.501541
vt 0.931873 0.501541
vt 0.789130 0.841486
vt 0.797852 0.841486
vt 0.797852 0.893018
vt 0.789130 0.893018
vt 0.920061 0.815278
vt 0.911339 0.815278
vt 0.911338 0.501541
vt 0.920061 0.501541
vt 0.296521 0.501359
vt 0.296521 0.815094
vt 0.244805 0.815095
vt 0.244805 0.501359
vt 0.424728 0.815086
vt 0.424728 0.501351
vt 0.476443 0.501351
vt 0.476443 0.815086
vt 0.280193 0.875694
vt 0.270457 0.875694
vt 0.270457 0.818174
vt 0.280193 0.818174
vt 0.097524 0.501539
vt 0.107259 0.501539
vt 0.107259 0.918108
vt 0.097524 0.918108
vt 0.283283 0.818174
vt 0.293018 0.818174
vt 0.293018 0.875694
vt 0.283283 0.875694
vt 0.110350 0.501539
vt 0.120085 0.501539
vt 0.120085 0.918108
vt 0.110350 0.918108
vt 0.895848 0.001540
vt 0.895848 0.418107
vt 0.838123 0.418107
vt 0.838123 0.001540
vt 0.835043 0.421840
vt 0.835043 0.838407
vt 0.777318 0.838407
vt 0.777318 0.421840
vt 0.739074 0.887589
vt 0.729339 0.887588
vt 0.729339 0.830089
vt 0.739074 0.830090
vt 0.081608 0.917976
vt 0.071872 0.917976
vt 0.071872 0.501540
vt 0.081608 0.501539
vt 0.726249 0.887588
vt 0.716513 0.887589
vt 0.716513 0.830090
vt 0.726249 0.830089
vt 0.084698 0.501539
vt 0.094434 0.501540
vt 0.094434 0.917976
vt 0.084698 0.917976
vt 0.716513 0.418761
vt 0.716513 0.002122
vt 0.774228 0.001540
vt 0.774228 0.418178
vt 0.835033 0.002122
vt 0.835033 0.418761
vt 0.777318 0.418178
vt 0.777318 0.001540
vt 0.600331 0.912092
vt 0.574580 0.912092
vt 0.574580 0.501539
vt 0.600331 0.501539
vt 0.027296 0.912093
vt 0.001545 0.912093
vt 0.001545 0.501539
vt 0.027296 0.501539
vt 0.155150 0.501540
vt 0.180900 0.501539
vt 0.180900 0.912093
vt 0.155149 0.912093
vt 0.334462 0.501359
vt 0.360212 0.501359
vt 0.360212 0.911913
vt 0.334462 0.911913
vt 0.479320 0.818166
vt 0.479320 0.843825
vt 0.453569 0.843825
vt 0.453569 0.818166
vt 0.424728 0.843825
vt 0.424728 0.818166
vt 0.450479 0.818166
vt 0.450479 0.843825
vt 0.305621 0.501359
vt 0.331371 0.501359
vt 0.331371 0.911913
vt 0.305621 0.911913
vt 0.656729 0.912093
vt 0.630978 0.912093
vt 0.630978 0.501539
vt 0.656729 0.501539
vt 0.215965 0.501539
vt 0.241715 0.501539
vt 0.241715 0.912093
vt 0.215965 0.912093
vt 0.545739 0.501539
vt 0.571490 0.501539
vt 0.571490 0.912093
vt 0.545739 0.912093
vt 0.742264 0.772611
vt 0.742264 0.798271
vt 0.716513 0.798271
vt 0.716513 0.772611
vt 0.745354 0.772611
vt 0.771105 0.772612
vt 0.771105 0.798271
vt 0.745354 0.798271
vt 0.866974 0.421840
vt 0.892725 0.421840
vt 0.892725 0.832393
vt 0.866974 0.832393
vt 0.542649 0.912093
vt 0.516898 0.912093
vt 0.516898 0.501539
vt 0.542649 0.501539
vt 0.209741 0.912093
vt 0.183990 0.912093
vt 0.183990 0.501539
vt 0.209741 0.501539
vt 0.488057 0.501539
vt 0.513808 0.501539
vt 0.513808 0.912093
vt 0.488057 0.912093
vt 0.771105 0.801350
vt 0.771105 0.827010
vt 0.745354 0.827010
vt 0.745354 0.801350
vt 0.742264 0.769532
vt 0.716513 0.769532
vt 0.716513 0.743873
vt 0.742264 0.743873
vt 0.838133 0.421840
vt 0.863884 0.421840
vt 0.863884 0.832393
vt 0.838133 0.832393
vt 0.056137 0.912093
vt 0.030386 0.912093
vt 0.030386 0.501539
vt 0.056137 0.501539
vt 0.123175 0.501540
vt 0.148926 0.501539
vt 0.148926 0.912093
vt 0.123175 0.912093
vt 0.659819 0.501539
vt 0.685570 0.501539
vt 0.685570 0.912093
vt 0.659819 0.912093
vt 0.716513 0.801350
vt 0.742264 0.801350
vt 0.742264 0.827010
vt 0.716513 0.827010
vt 0.771105 0.769532
vt 0.745354 0.769532
vt 0.745354 0.743873
vt 0.771105 0.743873
vt 0.666667 0.666667
vt 0.666667 1.000000
vt 1.000000 1.000000
vt 1.000000 0.666667
vt 0.666667 0.000000
vt 0.666667 0.333333
vt 1.000000 0.333333
vt 1.000000 0.000000
vt 0.000000 0.000000
vt 0.000000 0.333333
vt 0.333333 0.333333
vt 0.333333 0.000000
vt 0.000000 0.666667
vt 0.333333 0.666667
vt 0.000000 1.000000
vt 0.333333 1.000000
vn -0.579700 -0.577300 0.575000
vn -0.579700 0.577300 0.575000
vn -0.575000 0.577300 -0.579700
vn -0.575000 -0.577300 -0.579700
vn 0.579700 0.577300 -0.575000
vn 0.579700 -0.577300 -0.575000
vn 0.575000 0.577300 0.579700
vn 0.575000 -0.577300 0.579700
vn -0.594000 -0.569600 0.568000
vn -0.563500 0.584500 0.583800
vn -0.560300 0.600200 -0.570800
vn -0.590800 -0.554000 -0.586500
vn 0.594000 0.569600 -0.568000
vn 0.563500 -0.584500 -0.583800
vn 0.590800 0.554000 0.586500
vn 0.560300 -0.600200 0.570800
vn -0.562200 -0.595800 0.573500
vn -0.596800 0.558400 0.576300
vn -0.591900 0.561300 -0.578400
vn -0.557400 -0.592900 -0.581200
vn 0.562200 0.595800 -0.573500
vn 0.596800 -0.558400 -0.576300
vn 0.557400 0.592900 0.581200
vn 0.591900 -0.561300 0.578400
vn -0.596500 -0.577300 0.557600
vn -0.596500 0.577300 0.557600
vn -0.557600 0.577300 -0.596500
vn -0.557600 -0.577300 -0.596500
vn 0.596500 0.577300 -0.557600
vn 0.596500 -0.577300 -0.557600
vn 0.557600 0.577300 0.596500
vn 0.557600 -0.577300 0.596500
vn -0.577300 -0.577300 0.577300
vn 0.577300 -0.577300 0.577300
vn 0.577300 0.577300 0.577300
vn -0.577300 0.577300 0.577300
vn 0.577300 0.577300 -0.577300
vn -0.577300 0.577300 -0.577300
vn 0.577300 -0.577300 -0.577300
vn -0.577300 -0.577300 -0.577300
vn -0.560600 -0.594100 -0.576800
vn -0.560600 -0.594100 0.576800
vn -0.593600 0.560100 0.577900
vn -0.593600 0.560100 -0.577900
vn 0.560600 0.594100 0.576800
vn 0.560600 0.594100 -0.576800
vn 0.593600 -0.560100 0.577900
vn 0.593600 -0.560100 -0.577900
vn 0.564300 0.645600 -0.514500
vn 0.515200 0.573500 0.636900
vn 0.587000 -0.576900 0.567900
vn 0.636200 -0.504800 -0.583400
vn -0.636200 0.504800 0.583400
vn -0.564300 -0.645600 0.514500
vn -0.587000 0.576900 -0.567900
vn -0.515200 -0.573500 -0.636900
vn 0.103500 -0.076400 -0.991700
vn 0.155400 0.033800 -0.987300
vn 0.112900 0.013500 -0.993500
vn 0.091400 -0.028700 -0.995400
vn 0.040100 -0.014000 -0.999100
vn 0.065200 -0.083100 -0.994400
vn 0.028100 -0.031700 -0.999100
vn 0.004200 0.017200 -0.999800
vn -0.041400 -0.115600 -0.992400
vn -0.106800 -0.102900 -0.988900
vn -0.032100 -0.132200 -0.990700
vn 0.075900 -0.095900 -0.992500
vn -0.116200 0.083800 -0.989700
vn 0.008600 -0.007400 -0.999900
vn -0.077500 0.187300 -0.979200
vn 0.099700 0.108100 -0.989100
vn -0.994800 0.009400 0.101400
vn -0.998100 0.002000 0.061300
vn -0.996900 0.049200 0.060700
vn -0.987400 0.112500 0.110900
vn -0.990900 0.013100 -0.133500
vn -0.999000 0.044300 0.008100
vn -0.985700 0.168500 0.001200
vn -0.975800 0.162800 -0.146000
vn -0.996800 -0.066300 -0.044600
vn -0.997800 -0.066600 -0.000000
vn -0.995900 -0.090300 0.000300
vn -0.993000 -0.085800 -0.080800
vn -0.998800 -0.039000 0.028200
vn -0.996500 -0.057700 0.060600
vn -0.999800 -0.011200 0.011200
vn -0.999000 -0.025300 0.036300
usemtl Table
s 1
f 34/1/1 33/2/2 35/3/3 36/4/4
f 36/5/4 35/6/3 39/7/5 40/8/6
f 40/9/6 39/10/5 37/11/7 38/12/8
f 38/13/8 37/14/7 33/15/2 34/16/1
f 33/17/2 37/18/7 39/19/5 35/20/3
f 38/21/8 34/22/1 36/23/4 40/24/6
f 42/25/1 41/26/2 43/27/3 44/28/4
f 44/29/4 43/30/3 47/31/5 48/32/6
f 48/33/6 47/34/5 45/35/7 46/36/8
f 46/37/8 45/38/7 41/39/2 42/40/1
f 41/41/2 45/42/7 47/43/5 43/44/3
f 46/45/8 42/46/1 44/47/4 48/48/6
f 50/49/9 49/50/10 51/51/11 52/52/12
f 52/53/12 51/54/11 55/55/13 56/56/14
f 56/57/14 55/58/13 53/59/15 54/60/16
f 54/61/16 53/62/15 49/63/10 50/64/9
f 49/65/10 53/66/15 55/67/13 51/68/11
f 54/69/16 50/70/9 52/71/12 56/72/14
f 58/73/1 57/74/2 59/75/3 60/76/4
f 60/77/4 59/78/3 63/79/5 64/80/6
f 64/81/6 63/82/5 61/83/7 62/84/8
f 62/85/8 61/86/7 57/87/2 58/88/1
f 57/89/2 61/90/7 63/91/5 59/92/3
f 62/93/8 58/94/1 60/95/4 64/96/6
f 66/97/17 65/98/18 67/99/19 68/100/20
f 68/101/20 67/102/19 71/103/21 72/104/22
f 72/105/22 71/106/21 69/107/23 70/108/24
f 70/109/24 69/110/23 65/111/18 66/112/17
f 65/113/18 69/114/23 71/115/21 67/116/19
f 70/117/24 66/118/17 68/119/20 72/120/22
f 74/121/25 73/122/26 75/123/27 76/124/28
f 76/125/28 75/126/27 79/127/29 80/128/30
f 80/129/30 79/130/29 77/131/31 78/132/32
f 78/133/32 77/134/31 73/135/26 74/136/25
f 73/137/26 77/138/31 79/139/29 75/140/27
f 78/141/32 74/142/25 76/143/28 80/144/30
f 82/145/33 81/146/34 83/147/35 84/148/36
f 84/149/36 83/150/35 87/151/37 88/152/38
f 88/153/38 87/154/37 85/155/39 86/156/40
f 86/157/40 85/158/39 81/159/34 82/160/33
f 81/161/34 85/162/39 87/163/37 83/164/35
f 86/165/40 82/166/33 84/167/36 88/168/38
f 90/169/33 89/170/34 91/171/35 92/172/36
f 92/173/36 91/174/35 95/175/37 96/176/38
f 96/177/38 95/178/37 93/179/39 94/180/40
f 94/181/40 93/182/39 89/183/34 90/184/33
f 89/185/34 93/186/39 95/187/37 91/188/35
f 94/189/40 90/190/33 92/191/36 96/192/38
f 98/193/40 97/194/33 99/195/36 100/196/38
f 100/197/38 99/198/36 103/199/35 104/200/37
f 104/201/37 103/202/35 101/203/34 102/204/39
f 102/205/39 101/206/34 97/207/33 98/208/40
f 97/209/33 101/210/34 103/211/35 99/212/36
f 102/213/39 98/214/40 100/215/38 104/216/37
f 106/217/41 105/218/42 107/219/43 108/220/44
f 108/221/44 107/222/43 111/223/45 112/224/46
f 112/225/46 111/226/45 109/227/47 110/228/48
f 110/229/48 109/230/47 105/231/42 106/232/41
f 105/233/42 109/234/47 111/235/45 107/236/43
f 110/237/48 106/238/41 108/239/44 112/240/46
f 114/241/37 116/242/35 115/243/34 113/244/39
f 116/245/35 120/246/36 119/247/33 115/248/34
f 120/249/36 118/250/38 117/251/40 119/252/33
f 118/253/38 114/254/37 113/255/39 117/256/40
f 113/257/39 115/258/34 119/259/33 117/260/40
f 118/261/38 120/262/36 116/263/35 114/264/37
f 122/265/49 124/266/50 123/267/51 121/268/52
f 124/269/50 128/270/53 127/271/54 123/272/51
f 128/273/53 126/274/55 125/275/56 127/276/54
f 126/277/55 122/278/49 121/279/52 125/280/56
f 121/281/52 123/282/51 127/283/54 125/284/56
f 126/285/55 128/286/53 124/287/50 122/288/49
f 130/289/37 132/290/35 131/291/34 129/292/39
f 132/293/35 136/294/36 135/295/33 131/296/34
f 136/297/36 134/298/38 133/299/40 135/300/33
f 134/301/38 130/302/37 129/303/39 133/304/40
f 129/305/39 131/306/34 135/307/33 133/308/40
f 134/309/38 136/310/36 132/311/35 130/312/37
f 138/313/37 140/314/35 139/315/34 137/316/39
f 140/317/35 144/318/36 143/319/33 139/320/34
f 144/321/36 142/322/38 141/323/40 143/324/33
f 142/325/38 138/326/37 137/327/39 141/328/40
f 137/329/39 139/330/34 143/331/33 141/332/40
f 142/333/38 144/334/36 140/335/35 138/336/37
usemtl cobweb
f 16/337/57 11/338/58 4/339/59 10/340/60
f 8/341/61 14/342/62 9/343/63 2/344/64
f 14/342/62 16/337/57 10/340/60 9/343/63
f 1/345/65 6/346/66 13/347/67 7/348/68
f 7/348/68 13/347/67 14/342/62 8/341/61
f 6/346/66 5/349/69 15/350/70 13/347/67
f 13/347/67 15/350/70 16/337/57 14/342/62
f 5/349/69 3/351/71 12/352/72 15/350/70
f 15/350/70 12/352/72 11/338/58 16/337/57
f 32/337/73 26/340/74 20/339/75 27/338/76
f 21/349/77 30/350/78 28/352/79 19/351/80
f 30/350/78 32/337/73 27/338/76 28/352/79
f 17/345/81 23/348/82 29/347/83 22/346/84
f 22/346/84 29/347/83 30/350/78 21/349/77
f 23/348/82 24/341/85 31/342/86 29/347/83
f 29/347/83 31/342/86 32/337/73 30/350/78
f 24/341/85 18/344/87 25/343/88 31/342/86
f 31/342/86 25/343/88 26/340/74 32/337/73
